<?xml version="1.0" encoding="UTF-8" standalone="no"?>
<svg
   xmlns:dc="http://purl.org/dc/elements/1.1/"
   xmlns:cc="http://creativecommons.org/ns#"
   xmlns:rdf="http://www.w3.org/1999/02/22-rdf-syntax-ns#"
   xmlns:svg="http://www.w3.org/2000/svg"
   xmlns="http://www.w3.org/2000/svg"
   xmlns:xlink="http://www.w3.org/1999/xlink"
   width="80"
   height="80"
   viewBox="0 0 80 79.999993"
   id="svg4999"
   version="1.1">
  <title
     id="title3394">Nickel</title>
  <defs
     id="defs5001">
    <radialGradient
       r="75.7145"
       fy="387.62302"
       fx="-257.68942"
       cy="387.62302"
       cx="-257.68942"
       gradientTransform="matrix(0.48468941,0.09232153,-0.09155473,0.48066372,204.46204,8.603962)"
       gradientUnits="userSpaceOnUse"
       id="radialGradient4175"
       xlink:href="#linearGradient4183" />
    <linearGradient
       id="linearGradient4183">
      <stop
         style="stop-color:#000000;stop-opacity:1"
         offset="0"
         id="stop4185" />
      <stop
         style="stop-color:#cccccc;stop-opacity:1"
         offset="1"
         id="stop4187" />
    </linearGradient>
  </defs>
  <metadata
     id="metadata5004">
    <rdf:RDF>
      <cc:Work
         rdf:about="">
        <dc:format>image/svg+xml</dc:format>
        <dc:type
           rdf:resource="http://purl.org/dc/dcmitype/StillImage" />
        <dc:title>Nickel</dc:title>
        <cc:license
           rdf:resource="http://creativecommons.org/publicdomain/zero/1.0/" />
        <dc:date>2016-03-24</dc:date>
        <dc:creator>
          <cc:Agent>
            <dc:title>mazeo</dc:title>
          </cc:Agent>
        </dc:creator>
        <dc:publisher>
          <cc:Agent>
            <dc:title>openclipart.org</dc:title>
          </cc:Agent>
        </dc:publisher>
        <dc:language>en</dc:language>
        <dc:subject>
          <rdf:Bag>
            <rdf:li>money</rdf:li>
            <rdf:li>currency</rdf:li>
            <rdf:li>change</rdf:li>
            <rdf:li>coin</rdf:li>
            <rdf:li>coins</rdf:li>
            <rdf:li>cash</rdf:li>
            <rdf:li>coinage</rdf:li>
            <rdf:li>denomination</rdf:li>
            <rdf:li>nickel</rdf:li>
            <rdf:li>nickels</rdf:li>
            <rdf:li>five cents</rdf:li>
          </rdf:Bag>
        </dc:subject>
        <dc:description>A nickel.</dc:description>
        <dc:contributor>
          <cc:Agent>
            <dc:title>mazeo</dc:title>
          </cc:Agent>
        </dc:contributor>
      </cc:Work>
      <cc:License
         rdf:about="http://creativecommons.org/publicdomain/zero/1.0/">
        <cc:permits
           rdf:resource="http://creativecommons.org/ns#Reproduction" />
        <cc:permits
           rdf:resource="http://creativecommons.org/ns#Distribution" />
        <cc:permits
           rdf:resource="http://creativecommons.org/ns#DerivativeWorks" />
      </cc:License>
    </rdf:RDF>
  </metadata>
  <g
     transform="translate(1.2716551,-139.27165)"
     id="nickel">
    <circle
       style="color:#000000;clip-rule:nonzero;display:inline;overflow:visible;visibility:visible;opacity:1;isolation:auto;mix-blend-mode:normal;color-interpolation:sRGB;color-interpolation-filters:linearRGB;solid-color:#000000;solid-opacity:1;fill:url(#radialGradient4175);fill-opacity:1;fill-rule:nonzero;stroke:#000000;stroke-width:1.05850065;stroke-linecap:round;stroke-linejoin:round;stroke-miterlimit:4;stroke-dasharray:none;stroke-dashoffset:0;stroke-opacity:1;marker:none;color-rendering:auto;image-rendering:auto;shape-rendering:auto;text-rendering:auto;enable-background:accumulate"
       id="circle4163"
       cx="39.879921"
       cy="178.12007"
       r="37.04752" />
    <circle
       r="34.303169"
       cy="180.42322"
       cx="37.576771"
       id="circle4167"
       style="color:#000000;clip-rule:nonzero;display:inline;overflow:visible;visibility:visible;opacity:1;isolation:auto;mix-blend-mode:normal;color-interpolation:sRGB;color-interpolation-filters:linearRGB;solid-color:#000000;solid-opacity:1;fill:#cccccc;fill-opacity:1;fill-rule:nonzero;stroke:#000000;stroke-width:6.54720545;stroke-linecap:round;stroke-linejoin:round;stroke-miterlimit:4;stroke-dasharray:none;stroke-dashoffset:0;stroke-opacity:1;marker:none;color-rendering:auto;image-rendering:auto;shape-rendering:auto;text-rendering:auto;enable-background:accumulate" />
    <path
       d="m 53.059195,190.06974 c -3.114441,-0.33254 -5.462793,-3.00312 -6.22977,-5.91372 c -1.006256,-3.6463 -0.370171,-7.97801 2.522199,-10.6237 c 1.013607,-0.95398 2.189538,-1.78444 3.539482,-2.1764 c 0,0 -1.492306,-4.83901 0,-6.33132 c 1.4791,-1.4791 4.796191,-1.4791 6.275292,0 c 1.492306,1.49231 0,6.33132 0,6.33132 c 1.836459,0.84577 4.893147,1.29068 5.098674,3.30574 c 0.194308,1.90507 -2.209121,3.67526 -4.090146,4.03411 c -1.167793,0.2228 -2.005286,-1.45013 -3.282971,-1.39372 c -2.337111,-0.28769 -4.25718,2.21463 -3.769727,4.41997 c 0.240745,2.04167 2.381487,3.73921 4.433325,3.151 c 1.346995,0.0279 1.987479,-2.04461 3.217749,-1.8767 c 1.813294,0.24749 4.017376,2.11551 3.827946,3.93577 c -0.197711,1.89985 -2.855709,2.70983 -4.755494,3.19718 c -0.820956,-0.0121 -0.416573,0.86789 -0.511266,1.38487 c 0,0 1.046205,3.39248 0,4.43869 c -1.479101,1.4791 -4.796192,1.4791 -6.275293,0 c -1.386658,-1.38666 0,-5.88309 0,-5.88309 z"
       id="path4173"
       style="fill:#000000;fill-opacity:1;stroke:none;stroke-width:1px;stroke-linecap:butt;stroke-linejoin:miter;stroke-opacity:1" />
    <path
       style="color:#000000;white-space:normal;clip-rule:nonzero;display:inline;overflow:visible;visibility:visible;opacity:1;isolation:auto;mix-blend-mode:normal;color-interpolation:sRGB;color-interpolation-filters:linearRGB;solid-color:#000000;solid-opacity:1;fill:#000000;fill-opacity:1;fill-rule:nonzero;stroke:none;stroke-width:15.46765804;stroke-linecap:round;stroke-linejoin:round;stroke-miterlimit:4;stroke-dasharray:none;stroke-dashoffset:0;stroke-opacity:1;color-rendering:auto;image-rendering:auto;shape-rendering:auto;text-rendering:auto;enable-background:accumulate"
       d="m 30.647024,159.09351 c -3.769777,0.19682 -7.578312,0.95635 -11.121072,2.19687 c -1.849074,1.29879 -1.184062,3.85106 -1.641743,5.77573 c -0.413856,4.00803 -0.951888,8.02205 -1.293207,12.02529 c 0.316261,2.67089 3.640993,2.89438 5.633925,2.09808 c 2.671154,-1.73103 5.774802,-2.01948 8.856727,-1.32947 c 3.209296,0.18981 5.725713,3.01784 5.703646,6.19283 c 0.511409,3.38926 -0.991679,7.53997 -4.726349,8.19549 c -3.051409,0.52929 -6.65164,0.86275 -9.133374,-1.34443 c -1.009817,-1.25509 -1.375002,-3.59583 -3.557397,-3.6092 c -3.753622,-0.93323 -5.585848,4.44714 -3.216046,6.88026 c 4.305858,5.95738 12.974115,6.99895 19.443564,4.37578 c 7.986242,-2.99076 10.889634,-13.66178 6.726439,-20.8094 c -3.27469,-6.3058 -11.334124,-8.50725 -17.88688,-6.7949 c 0.231591,-1.62232 0.463186,-3.24463 0.694777,-4.86695 c 4.453392,-0.0369 8.927787,0.0727 13.36765,-0.0526 c 3.413671,-1.01845 2.694502,-6.4169 -0.297404,-7.59886 c -2.341598,-1.07822 -4.998147,-1.37866 -7.553256,-1.33455 z"
       id="path4230" />
  </g>
</svg>
